<svg xmlns="http://www.w3.org/2000/svg" viewBox="0 0 389.05 429.01"><defs><style>.cls-1{isolation:isolate;}.cls-2{fill:#efefff;}.cls-3{fill:#b2aaf2;}.cls-4,.cls-8{fill:#b0affd;}.cls-4{opacity:0.4;}.cls-11,.cls-21,.cls-23,.cls-24,.cls-28,.cls-29,.cls-4,.cls-6{mix-blend-mode:multiply;}.cls-5,.cls-6{fill:#d2d2ff;}.cls-11,.cls-21,.cls-23,.cls-6{opacity:0.5;}.cls-7{fill:#5148a5;}.cls-9{fill:#fff;}.cls-10,.cls-11,.cls-28{fill:#ffb127;}.cls-12,.cls-24{opacity:0.3;}.cls-13{fill:none;stroke:#b0affd;stroke-miterlimit:10;stroke-width:1.11px;}.cls-14{fill:#7762ef;}.cls-15,.cls-24{fill:#ed9c80;}.cls-16{fill:#3a3a3a;}.cls-17{fill:#2d24a3;}.cls-18{fill:#170d54;}.cls-19{fill:#2c1e56;}.cls-20{fill:#eaeaea;}.cls-21{fill:#3d38a0;}.cls-22{fill:#ffbe9d;}.cls-23{fill:#5f52dd;}.cls-25,.cls-29{fill:#ffc25b;}.cls-26{fill:#fe7f9a;}.cls-27{fill:#ffe7c5;}.cls-30{opacity:0.1;mix-blend-mode:screen;}.cls-31{fill:#fc9;}.cls-32{fill:#201d93;}.cls-33{fill:#ffc064;}.cls-34{fill:#d8836c;}</style></defs><title>2159060</title><g class="cls-1"><g id="OBJECTS"><path class="cls-2" d="M437,227.56A175.9,175.9,0,1,1,261.13,51.67,175.89,175.89,0,0,1,437,227.56Z" transform="translate(-61.73 -34.46)"/><path class="cls-2" d="M415.21,219.49a192.25,192.25,0,0,1-12.74,69.17,185.73,185.73,0,0,1-37.2,59.7,177.59,177.59,0,0,1-57.06,41.22,170,170,0,0,1-138,.58,176.94,176.94,0,0,1-57.69-41,187.06,187.06,0,0,1-37.68-60,192.16,192.16,0,0,1,0-139.38,187.07,187.07,0,0,1,37.68-60,176.73,176.73,0,0,1,57.69-41,170,170,0,0,1,138,.58,177.52,177.52,0,0,1,57.06,41.22,185.73,185.73,0,0,1,37.2,59.7A192.25,192.25,0,0,1,415.21,219.49Zm0,0a192.13,192.13,0,0,0-13-69.08A185.36,185.36,0,0,0,364.9,91a175.16,175.16,0,0,0-57.13-40.58A168.25,168.25,0,0,0,171.12,51a176,176,0,0,0-56.51,40.82,184,184,0,0,0-36.86,59.15,192.37,192.37,0,0,0,0,137.1,184,184,0,0,0,36.86,59.15A175.75,175.75,0,0,0,171.12,388a168.26,168.26,0,0,0,136.65.58A175.1,175.1,0,0,0,364.91,348a185.36,185.36,0,0,0,37.33-59.45A192.13,192.13,0,0,0,415.21,219.49Z" transform="translate(-61.73 -34.46)"/><path class="cls-2" d="M445.34,226.63a190.09,190.09,0,0,1-12,67.3,167.16,167.16,0,0,1-36.72,57.78,163.53,163.53,0,0,1-57.28,37.86,176,176,0,0,1-134.71-3.33A167.58,167.58,0,0,1,174.87,369a164.55,164.55,0,0,1-25.63-22.93,170.37,170.37,0,0,1-34.67-59,190.57,190.57,0,0,1-10-67.81A195.31,195.31,0,0,1,118.49,152a190.26,190.26,0,0,1,15.69-30.76,183.59,183.59,0,0,1,21.15-27.33A171.26,171.26,0,0,1,211.43,54,159.44,159.44,0,0,1,345.8,57.26a170.47,170.47,0,0,1,54,42.46,188.57,188.57,0,0,1,34.08,59.47A200.26,200.26,0,0,1,445.34,226.63Zm-.33,0a196.08,196.08,0,0,0-12-67.13,185.8,185.8,0,0,0-34.85-58.36,172.46,172.46,0,0,0-53.78-41,160.6,160.6,0,0,0-15.66-6.55,156.69,156.69,0,0,0-83.59-6.41,160,160,0,0,0-32.33,10.09A167.91,167.91,0,0,0,157.65,96.1,185.69,185.69,0,0,0,121,153a196.36,196.36,0,0,0-14.47,66.32,185.82,185.82,0,0,0,9.19,67.35,161.57,161.57,0,0,0,89.66,97.89,172.67,172.67,0,0,0,66.3,14,175.38,175.38,0,0,0,66.63-11.7,164.7,164.7,0,0,0,94.23-93.24,172.92,172.92,0,0,0,9.41-32.88A192.81,192.81,0,0,0,445,226.63Z" transform="translate(-61.73 -34.46)"/><circle class="cls-3" cx="155.5" cy="86.42" r="1.36" transform="translate(-82.65 29.06) rotate(-21.67)"/><circle class="cls-3" cx="383.75" cy="159.38" r="1.36" transform="translate(-93.46 118.49) rotate(-21.67)"/><circle class="cls-3" cx="127.68" cy="159.38" r="1.36" transform="translate(-111.55 23.95) rotate(-21.67)"/><circle class="cls-3" cx="346.14" cy="84.89" r="1.36" transform="translate(-68.61 99.34) rotate(-21.67)"/><circle class="cls-3" cx="135.11" cy="270.8" r="1.36" transform="translate(-152.16 34.56) rotate(-21.67)"/><circle class="cls-3" cx="409.67" cy="248.29" r="1.36" transform="translate(-124.45 134.34) rotate(-21.67)"/><path class="cls-3" d="M229.77,78.71a.5.5,0,0,1-.5-.5V72.75a.5.5,0,0,1,1,0v5.46A.5.5,0,0,1,229.77,78.71Z" transform="translate(-61.73 -34.46)"/><path class="cls-3" d="M232.5,76H227a.5.5,0,0,1,0-1h5.46a.5.5,0,0,1,0,1Z" transform="translate(-61.73 -34.46)"/><path class="cls-3" d="M415.21,205.93a.5.5,0,0,1-.5-.5V200a.5.5,0,0,1,1,0v5.46A.5.5,0,0,1,415.21,205.93Z" transform="translate(-61.73 -34.46)"/><path class="cls-3" d="M417.94,203.2h-5.46a.5.5,0,0,1,0-1h5.46a.5.5,0,0,1,0,1Z" transform="translate(-61.73 -34.46)"/><path class="cls-3" d="M386.58,304.77a.5.5,0,0,1-.5-.5V298.8a.5.5,0,0,1,1,0v5.46A.5.5,0,0,1,386.58,304.77Z" transform="translate(-61.73 -34.46)"/><path class="cls-3" d="M389.31,302h-5.46a.5.5,0,0,1,0-1h5.46a.5.5,0,0,1,0,1Z" transform="translate(-61.73 -34.46)"/><path class="cls-3" d="M92.66,215.17a.5.5,0,0,1-.5-.5v-5.46a.5.5,0,0,1,1,0v5.46A.5.5,0,0,1,92.66,215.17Z" transform="translate(-61.73 -34.46)"/><path class="cls-3" d="M95.39,212.44H89.93a.5.5,0,0,1,0-1h5.46a.5.5,0,1,1,0,1Z" transform="translate(-61.73 -34.46)"/><ellipse id="_Контур_" data-name="&lt;Контур&gt;" class="cls-4" cx="190.67" cy="373.38" rx="110.48" ry="4.61"/><path class="cls-5" d="M361,401.09c.06.08.25-6.42,10-12.23,9.92-6.2,30.55-4.15,33.5-10.54,3.09-6.85-10-5.93-15.31-11.39s-7.16-8.11.72-9.25,12.56-1.41,12.88-7.85,12.94-2.68,19.59-7.09c6.86-4.4,3.59-11-8.92-11.3-12.32,0-12.65-2.06-9-3.76s14.51-4.35,10.14-7.93-11.48-1-7.63-5,12.56-6.59,8.63-11.4-14.72-5-21.49,6.69S385.29,325,379.3,326s-11-5.49-18.23-3.3-6.22,9.11-2.25,13.82,10.79,14,6.21,17.79c-4.42,3.79-9.2-2.42-15.29-3.82-6.76-1.56-14.83,3.86-8.92,13.55,6.17,9.57,16,17.38,15.11,38.69Q358.46,401.84,361,401.09Z" transform="translate(-61.73 -34.46)"/><path class="cls-6" d="M346.36,356.26a.37.37,0,0,1,.52,0c.13.12,12.5,12.16,16.87,26.65q.69-2,1.39-4l0,0a282.87,282.87,0,0,1,13.78-32.32,144.69,144.69,0,0,0-18.55-20.18.37.37,0,1,1,.49-.55,145.79,145.79,0,0,1,18.43,20q1-2,2.06-4a.36.36,0,0,1,.17-.31c3.25-6.06,6.41-11.31,9.37-15.81a.34.34,0,0,1,.16-.29l0,0c10.4-15.76,18.27-22.29,18.43-22.42a.37.37,0,1,1,.46.57c-.15.12-7.58,6.3-17.54,21.13a41.85,41.85,0,0,1,19.61-4.11.36.36,0,0,1,.34.39.37.37,0,0,1-.39.34c-.11,0-10.81-.73-20.41,4.67-2.87,4.36-5.94,9.43-9.09,15.26,17.46-4.89,35.93-3.43,36.12-3.41a.35.35,0,0,1,.33.4.37.37,0,0,1-.4.33c-.19,0-19-1.51-36.54,3.58a274.44,274.44,0,0,0-16,36.29c12.3-4.08,31.3-3.1,31.5-3.09a.37.37,0,0,1,0,.73c-.2,0-19.64-1-31.77,3.24-2.5,7-4.93,14.55-7.23,22.7a.37.37,0,0,1-.42.26h0a.37.37,0,0,1-.25-.45q2.65-9.4,5.51-17.75c-4-14.75-16.83-27.21-17-27.33A.37.37,0,0,1,346.36,356.26Z" transform="translate(-61.73 -34.46)"/><g id="_Группа_" data-name="&lt;Группа&gt;"><path class="cls-5" d="M160.67,314.89c1.57-51.92-23.41-103.33-65.21-134.17l.83-1.12c42.15,31.11,67.36,83,65.77,135.33Z" transform="translate(-61.73 -34.46)"/><g id="_Группа_2" data-name="&lt;Группа&gt;"><path class="cls-5" d="M104.44,187A30.63,30.63,0,0,0,88.8,172.49c-1.65-.67-3.58-1.19-5.15-.34a2,2,0,0,0-1,1,2.55,2.55,0,0,0,.6,2.19c2.4,3.41,6.39,5.34,10.32,6.74s6.69,3,10.85,4.85" transform="translate(-61.73 -34.46)"/><path class="cls-5" d="M115,197.26a30.63,30.63,0,0,0-20.1-7.1c-1.78,0-3.76.33-4.86,1.73a2,2,0,0,0-.49,1.35A2.55,2.55,0,0,0,91,195c3.56,2.18,8,2.37,12.15,2.1s7.32.09,11.88.15" transform="translate(-61.73 -34.46)"/><path class="cls-5" d="M127.68,211.68a30.63,30.63,0,0,0-19.08-9.5c-1.77-.18-3.77-.13-5,1.12a2,2,0,0,0-.65,1.28,2.56,2.56,0,0,0,1.19,1.93c3.27,2.6,7.63,3.32,11.8,3.57s7.26,1,11.77,1.6" transform="translate(-61.73 -34.46)"/><path class="cls-5" d="M138,227.29a30.63,30.63,0,0,0-19.08-9.5c-1.77-.18-3.77-.13-5,1.12a2,2,0,0,0-.65,1.28,2.55,2.55,0,0,0,1.19,1.93c3.27,2.6,7.63,3.32,11.8,3.57s7.26,1,11.77,1.6" transform="translate(-61.73 -34.46)"/><path class="cls-5" d="M149,249.6a30.63,30.63,0,0,0-18-11.43c-1.74-.37-3.74-.52-5.13.6a2,2,0,0,0-.78,1.2,2.55,2.55,0,0,0,1,2c3,2.92,7.24,4.1,11.36,4.77s7.12,1.73,11.54,2.81" transform="translate(-61.73 -34.46)"/><path class="cls-5" d="M155.39,266.56a32.69,32.69,0,0,0-16.75-12.3c-1.69-.55-3.65-1-5.12-.19a1.65,1.65,0,0,0-.88.93,2.19,2.19,0,0,0,.79,1.9c2.68,2.92,6.79,4.52,10.8,5.66s6.88,2.47,11.16,4" transform="translate(-61.73 -34.46)"/><path class="cls-5" d="M119.61,202.23a33.18,33.18,0,0,0,.9-22.31c-.56-1.8-1.43-3.73-3.11-4.47a2,2,0,0,0-1.44-.13,2.54,2.54,0,0,0-1.29,1.92c-1,4.2.08,8.74,1.57,12.9s2.08,7.46,3.37,12.11" transform="translate(-61.73 -34.46)"/><path class="cls-5" d="M129,213.71a33.18,33.18,0,0,0,6.2-21.45c-.11-1.88-.5-4-1.95-5.09a2,2,0,0,0-1.37-.48c-.78.09-1.33.83-1.71,1.56-2,3.83-2,8.5-1.56,12.9s.24,7.74.39,12.56" transform="translate(-61.73 -34.46)"/><path class="cls-5" d="M139.36,230a33.18,33.18,0,0,0,10.37-19.78c.26-1.86.3-4-.89-5.37a2,2,0,0,0-1.25-.74,2.54,2.54,0,0,0-2,1.18c-2.75,3.35-3.67,7.93-4.11,12.33s-1.32,7.63-2.13,12.38" transform="translate(-61.73 -34.46)"/><path class="cls-5" d="M150.53,251.94a33.18,33.18,0,0,0,5.72-21.59c-.16-1.88-.59-4-2.06-5a2,2,0,0,0-1.38-.44c-.78.1-1.31.86-1.68,1.59-1.94,3.87-1.82,8.54-1.27,12.93s.41,7.74.67,12.55" transform="translate(-61.73 -34.46)"/><path class="cls-5" d="M155.92,268.86a33.18,33.18,0,0,0,14.83-16.7c.7-1.75,1.25-3.79.43-5.43a2,2,0,0,0-1-1,2.54,2.54,0,0,0-2.21.67c-3.47,2.59-5.47,6.81-7,11s-3.12,7.09-5.06,11.51" transform="translate(-61.73 -34.46)"/></g></g><g id="_Группа_3" data-name="&lt;Группа&gt;"><path class="cls-5" d="M347.53,327.51c-11.22-50.71,3.74-105.88,39-144l-1-.95c-35.62,38.42-50.71,94.07-39.38,145.22Z" transform="translate(-61.73 -34.46)"/><g id="_Группа_4" data-name="&lt;Группа&gt;"><path class="cls-5" d="M378.93,191.37a30.63,30.63,0,0,1,12.66-17.15c1.49-1,3.3-1.83,5-1.29a2,2,0,0,1,1.16.84,2.55,2.55,0,0,1-.18,2.27c-1.73,3.8-5.28,6.43-8.88,8.55s-6,4.18-9.75,6.78" transform="translate(-61.73 -34.46)"/><path class="cls-5" d="M370.42,203.44a30.63,30.63,0,0,1,18.42-10.72c1.75-.3,3.76-.37,5.1.79a2,2,0,0,1,.73,1.23,2.55,2.55,0,0,1-1.07,2c-3.09,2.81-7.4,3.81-11.54,4.33s-7.18,1.45-11.64,2.36" transform="translate(-61.73 -34.46)"/><path class="cls-5" d="M360.7,220a30.63,30.63,0,0,1,17-12.89c1.71-.51,3.68-.83,5.16.17a2,2,0,0,1,.88,1.14,2.56,2.56,0,0,1-.81,2.12c-2.73,3.16-6.88,4.69-10.93,5.71S365,218.52,360.7,220" transform="translate(-61.73 -34.46)"/><path class="cls-5" d="M353.42,237.23a30.63,30.63,0,0,1,17-12.89c1.71-.51,3.68-.83,5.16.17a2,2,0,0,1,.88,1.14,2.55,2.55,0,0,1-.81,2.12c-2.73,3.16-6.88,4.69-10.93,5.71s-6.95,2.32-11.27,3.76" transform="translate(-61.73 -34.46)"/><path class="cls-5" d="M346.81,261.2a30.63,30.63,0,0,1,15.55-14.58c1.64-.68,3.58-1.21,5.15-.37a2,2,0,0,1,1,1,2.55,2.55,0,0,1-.59,2.2c-2.38,3.43-6.35,5.37-10.28,6.81s-6.67,3-10.82,4.91" transform="translate(-61.73 -34.46)"/><path class="cls-5" d="M343.71,279a32.69,32.69,0,0,1,14.17-15.2c1.56-.86,3.41-1.62,5-1.14a1.65,1.65,0,0,1,1,.75,2.19,2.19,0,0,1-.42,2c-2.09,3.37-5.83,5.7-9.56,7.58s-6.3,3.7-10.22,6" transform="translate(-61.73 -34.46)"/><path class="cls-5" d="M366.86,209.18a33.18,33.18,0,0,1-5-21.75c.22-1.87.71-3.93,2.22-5a2,2,0,0,1,1.39-.4c.78.13,1.28.9,1.62,1.64,1.81,3.93,1.55,8.6.87,13s-.65,7.72-1.06,12.52" transform="translate(-61.73 -34.46)"/><path class="cls-5" d="M359.74,222.21a33.18,33.18,0,0,1-10.09-19.92c-.24-1.87-.25-4,1-5.36a2,2,0,0,1,1.26-.72,2.54,2.54,0,0,1,2,1.21c2.7,3.38,3.56,8,3.93,12.38s1.21,7.65,2,12.41" transform="translate(-61.73 -34.46)"/><path class="cls-5" d="M352.63,240.1a33.18,33.18,0,0,1-13.87-17.5c-.61-1.78-1-3.86-.13-5.45a2,2,0,0,1,1.09-1,2.54,2.54,0,0,1,2.17.79c3.32,2.78,5.08,7.11,6.33,11.35s2.72,7.26,4.41,11.77" transform="translate(-61.73 -34.46)"/><path class="cls-5" d="M345.76,263.78a33.18,33.18,0,0,1-9.65-20.14c-.2-1.87-.16-4,1.09-5.34a2,2,0,0,1,1.27-.69,2.54,2.54,0,0,1,1.94,1.25c2.62,3.44,3.38,8.06,3.66,12.47s1,7.68,1.69,12.45" transform="translate(-61.73 -34.46)"/><path class="cls-5" d="M343.62,281.41a33.18,33.18,0,0,1-17.68-13.64c-1-1.58-1.94-3.49-1.43-5.26a2,2,0,0,1,.82-1.19,2.54,2.54,0,0,1,2.3.24c3.89,1.89,6.64,5.67,8.88,9.49s4.38,6.39,7.11,10.36" transform="translate(-61.73 -34.46)"/></g></g><path class="cls-3" d="M323.92,364.68a31,31,0,0,1,23.92-8.07c5.85.59,12.22,3.71,13.51,9.45.61,2.73.4,6.35,3,7.42s5-1.56,7.57-2.43c4.32-1.45,9.25,3.49,7.8,7.81-.66,2-2.32,3.67-2.19,5.74.19,2.82,3.67,4.28,6.46,3.85s5.25-2.07,8-2.76,6.28,0,7.24,2.66c.86,2.38-.62,5.58,1.24,7.28a5.1,5.1,0,0,0,3,1c23.69,2.25,49.77,6.5,47.12,10.71-.72,1.15-2.58.78-3.94.76-50.41-.79-95.74-.8-146.61-.78" transform="translate(-61.73 -34.46)"/><path class="cls-5" d="M153.92,406.71c-.06.08-.25-6.42-10-12.23-9.92-6.2-30.55-4.15-33.5-10.54-3.09-6.85,10-5.93,15.31-11.39s7.16-8.11-.72-9.25-12.56-1.41-12.88-7.85-12.94-2.68-19.59-7.09c-6.86-4.4-3.59-11,8.92-11.3,12.32,0,12.65-2.06,9-3.76s-14.51-4.35-10.14-7.93,11.48-1,7.63-5S95.4,313.79,99.34,309s14.72-5,21.49,6.69,8.82,14.91,14.81,15.9,11-5.49,18.23-3.3,6.22,9.11,2.25,13.82-10.79,14-6.21,17.79c4.42,3.79,9.2-2.42,15.29-3.82,6.76-1.56,14.83,3.86,8.92,13.55-6.17,9.57-15.28,12.72-14.35,34C158.07,403.09,155.62,407.22,153.92,406.71Z" transform="translate(-61.73 -34.46)"/><path class="cls-6" d="M168.56,361.88a.37.37,0,0,0-.52,0c-.13.12-12.5,12.16-16.87,26.65q-.69-2-1.39-4l0,0A282.86,282.86,0,0,0,136,352.21,144.7,144.7,0,0,1,154.55,332a.37.37,0,1,0-.49-.55,145.8,145.8,0,0,0-18.43,20q-1-2-2.06-4a.36.36,0,0,0-.17-.31c-3.25-6.06-6.41-11.31-9.37-15.81a.34.34,0,0,0-.16-.29l0,0c-10.4-15.76-18.27-22.29-18.43-22.42a.37.37,0,1,0-.46.57c.15.12,7.58,6.3,17.54,21.13a41.85,41.85,0,0,0-19.61-4.11.36.36,0,0,0-.34.39.37.37,0,0,0,.39.34c.11,0,10.81-.73,20.41,4.67,2.87,4.36,5.94,9.43,9.09,15.26C115,342,96.48,343.49,96.29,343.51a.35.35,0,0,0-.33.4.37.37,0,0,0,.4.33c.19,0,19-1.51,36.54,3.58a274.45,274.45,0,0,1,16,36.29c-12.3-4.08-31.3-3.1-31.5-3.09a.37.37,0,0,0,0,.73c.2,0,19.64-1,31.77,3.24,2.5,7,4.48,13,6.78,21.13.05.18.31.68.49.65,0,0,0-.15.06-.15.19-.06.49.15.44,0-1.77-6.26-3.45-11.25-5.35-16.83,4-14.75,16.83-27.21,17-27.33A.37.37,0,0,0,168.56,361.88Z" transform="translate(-61.73 -34.46)"/><path class="cls-3" d="M193.8,364.68a31,31,0,0,0-23.91-8.07c-5.85.59-12.22,3.71-13.51,9.45-.61,2.73-.4,6.35-3,7.42s-5-1.56-7.57-2.43c-4.32-1.45-9.25,3.49-7.8,7.81.66,2,2.32,3.67,2.19,5.74-.19,2.82-3.67,4.28-6.46,3.85s-5.25-2.07-8-2.76-6.28,0-7.24,2.66c-.86,2.38.62,5.58-1.24,7.28a5.1,5.1,0,0,1-3,1c-23.69,2.25-49.77,6.5-47.12,10.71.72,1.15,2.58.78,3.94.76,50.41-.79,95.74-.8,146.61-.78" transform="translate(-61.73 -34.46)"/><rect class="cls-7" x="86.17" y="77.84" width="208.99" height="295.49" rx="6.94" ry="6.94"/><rect id="_Прямоугольник_" data-name="&lt;Прямоугольник&gt;" class="cls-8" x="98.29" y="89.43" width="184.76" height="272.31" rx="4.01" ry="4.01"/><rect class="cls-9" x="105.39" y="97.75" width="170.55" height="255.67" rx="4.96" ry="4.96"/><path id="_Составной_контур_" data-name="&lt;Составной контур&gt;" class="cls-10" d="M254.5,86.25a11.09,11.09,0,0,0-11.09,11.09v14.21h22.18s0-11.29,0-14.21A11.09,11.09,0,0,0,254.5,86.25Zm0,17.45a6.22,6.22,0,1,1,6.22-6.22A6.22,6.22,0,0,1,254.5,103.7Z" transform="translate(-61.73 -34.46)"/><path id="_Составной_контур_2" data-name="&lt;Составной контур&gt;" class="cls-11" d="M260.72,97.48a6.08,6.08,0,0,0-7.15-6.13,4.56,4.56,0,0,1,2.52-.6A6.22,6.22,0,0,1,262.31,97c0,3.12-1.59,4.8-4,5.42A6.8,6.8,0,0,0,260.72,97.48ZM246.8,110.13V95.92a10.82,10.82,0,0,1,4.66-9.24,11.08,11.08,0,0,0-8,10.66v14.21h22.18v-1.42Z" transform="translate(-61.73 -34.46)"/><path id="_Контур_2" data-name="&lt;Контур&gt;" class="cls-10" d="M319.61,117.19v11.11H185.17V117.19a7.8,7.8,0,0,1,7.8-7.8H311.81A7.79,7.79,0,0,1,319.61,117.19Z" transform="translate(-61.73 -34.46)"/><path id="_Контур_3" data-name="&lt;Контур&gt;" class="cls-11" d="M319.61,125.52v2.78H185.17V117.19a7.8,7.8,0,0,1,7.8-7.8H194a11.67,11.67,0,0,0-3.68,8.09v8Z" transform="translate(-61.73 -34.46)"/><g class="cls-12"><g id="_Группа_5" data-name="&lt;Группа&gt;"><g id="_Группа_6" data-name="&lt;Группа&gt;"><path class="cls-8" d="M242.12,161.12h-27.7a1.73,1.73,0,1,1,0-3.47h27.7a1.73,1.73,0,0,1,0,3.47Z" transform="translate(-61.73 -34.46)"/></g><g id="_Группа_7" data-name="&lt;Группа&gt;"><path class="cls-8" d="M325.35,169.95H304.29a1.73,1.73,0,0,1,0-3.47h21.07a1.73,1.73,0,0,1,0,3.47Z" transform="translate(-61.73 -34.46)"/></g><g id="_Группа_8" data-name="&lt;Группа&gt;"><path class="cls-8" d="M295.16,169.95H214.42a1.73,1.73,0,1,1,0-3.47h80.75a1.73,1.73,0,1,1,0,3.47Z" transform="translate(-61.73 -34.46)"/></g><g id="_Группа_9" data-name="&lt;Группа&gt;"><path class="cls-8" d="M325.35,178.78H214.42a1.73,1.73,0,1,1,0-3.47H325.35a1.73,1.73,0,0,1,0,3.47Z" transform="translate(-61.73 -34.46)"/></g><g id="_Группа_10" data-name="&lt;Группа&gt;"><path class="cls-8" d="M325.35,187.61H290.09a1.73,1.73,0,0,1,0-3.47h35.26a1.73,1.73,0,0,1,0,3.47Z" transform="translate(-61.73 -34.46)"/></g><g id="_Группа_11" data-name="&lt;Группа&gt;"><path class="cls-8" d="M281.31,187.61h-66.9a1.73,1.73,0,1,1,0-3.47h66.9a1.73,1.73,0,0,1,0,3.47Z" transform="translate(-61.73 -34.46)"/></g><g id="_Группа_12" data-name="&lt;Группа&gt;"><path class="cls-8" d="M325.35,161.12H251.21a1.73,1.73,0,1,1,0-3.47h74.14a1.73,1.73,0,0,1,0,3.47Z" transform="translate(-61.73 -34.46)"/></g></g><g id="_Группа_13" data-name="&lt;Группа&gt;"><g id="_Группа_14" data-name="&lt;Группа&gt;"><path class="cls-8" d="M242.12,224.61h-27.7a1.73,1.73,0,1,1,0-3.47h27.7a1.73,1.73,0,0,1,0,3.47Z" transform="translate(-61.73 -34.46)"/></g><g id="_Группа_15" data-name="&lt;Группа&gt;"><path class="cls-8" d="M325.35,233.44H304.29a1.73,1.73,0,0,1,0-3.47h21.07a1.73,1.73,0,0,1,0,3.47Z" transform="translate(-61.73 -34.46)"/></g><g id="_Группа_16" data-name="&lt;Группа&gt;"><path class="cls-8" d="M295.16,233.44H214.42a1.73,1.73,0,1,1,0-3.47h80.75a1.73,1.73,0,1,1,0,3.47Z" transform="translate(-61.73 -34.46)"/></g><g id="_Группа_17" data-name="&lt;Группа&gt;"><path class="cls-8" d="M325.35,242.27H214.42a1.73,1.73,0,1,1,0-3.47H325.35a1.73,1.73,0,0,1,0,3.47Z" transform="translate(-61.73 -34.46)"/></g><g id="_Группа_18" data-name="&lt;Группа&gt;"><path class="cls-8" d="M325.35,251.11H290.09a1.73,1.73,0,1,1,0-3.47h35.26a1.73,1.73,0,0,1,0,3.47Z" transform="translate(-61.73 -34.46)"/></g><g id="_Группа_19" data-name="&lt;Группа&gt;"><path class="cls-8" d="M281.31,251.11h-66.9a1.73,1.73,0,1,1,0-3.47h66.9a1.73,1.73,0,0,1,0,3.47Z" transform="translate(-61.73 -34.46)"/></g><g id="_Группа_20" data-name="&lt;Группа&gt;"><path class="cls-8" d="M325.35,224.61H251.21a1.73,1.73,0,1,1,0-3.47h74.14a1.73,1.73,0,0,1,0,3.47Z" transform="translate(-61.73 -34.46)"/></g></g><g id="_Группа_21" data-name="&lt;Группа&gt;"><g id="_Группа_22" data-name="&lt;Группа&gt;"><path class="cls-8" d="M242.12,285.88h-27.7a1.73,1.73,0,1,1,0-3.47h27.7a1.73,1.73,0,0,1,0,3.47Z" transform="translate(-61.73 -34.46)"/></g><g id="_Группа_23" data-name="&lt;Группа&gt;"><path class="cls-8" d="M325.35,294.71H304.29a1.73,1.73,0,0,1,0-3.47h21.07a1.73,1.73,0,0,1,0,3.47Z" transform="translate(-61.73 -34.46)"/></g><g id="_Группа_24" data-name="&lt;Группа&gt;"><path class="cls-8" d="M295.16,294.71H214.42a1.73,1.73,0,1,1,0-3.47h80.75a1.73,1.73,0,1,1,0,3.47Z" transform="translate(-61.73 -34.46)"/></g><g id="_Группа_25" data-name="&lt;Группа&gt;"><path class="cls-8" d="M325.35,303.55H214.42a1.73,1.73,0,1,1,0-3.47H325.35a1.73,1.73,0,0,1,0,3.47Z" transform="translate(-61.73 -34.46)"/></g><g id="_Группа_26" data-name="&lt;Группа&gt;"><path class="cls-8" d="M325.35,312.38H290.09a1.73,1.73,0,1,1,0-3.47h35.26a1.73,1.73,0,0,1,0,3.47Z" transform="translate(-61.73 -34.46)"/></g><g id="_Группа_27" data-name="&lt;Группа&gt;"><path class="cls-8" d="M281.31,312.38h-66.9a1.73,1.73,0,1,1,0-3.47h66.9a1.73,1.73,0,0,1,0,3.47Z" transform="translate(-61.73 -34.46)"/></g><g id="_Группа_28" data-name="&lt;Группа&gt;"><path class="cls-8" d="M325.35,285.88H251.21a1.73,1.73,0,1,1,0-3.47h74.14a1.73,1.73,0,0,1,0,3.47Z" transform="translate(-61.73 -34.46)"/></g></g><g id="_Группа_29" data-name="&lt;Группа&gt;"><g id="_Группа_30" data-name="&lt;Группа&gt;"><path class="cls-8" d="M242.12,348.26h-27.7a1.73,1.73,0,1,1,0-3.47h27.7a1.73,1.73,0,0,1,0,3.47Z" transform="translate(-61.73 -34.46)"/></g><g id="_Группа_31" data-name="&lt;Группа&gt;"><path class="cls-8" d="M325.35,357.1H304.29a1.73,1.73,0,0,1,0-3.47h21.07a1.73,1.73,0,0,1,0,3.47Z" transform="translate(-61.73 -34.46)"/></g><g id="_Группа_32" data-name="&lt;Группа&gt;"><path class="cls-8" d="M295.16,357.1H214.42a1.73,1.73,0,1,1,0-3.47h80.75a1.73,1.73,0,1,1,0,3.47Z" transform="translate(-61.73 -34.46)"/></g><g id="_Группа_33" data-name="&lt;Группа&gt;"><path class="cls-8" d="M325.35,365.93H214.42a1.73,1.73,0,1,1,0-3.47H325.35a1.73,1.73,0,0,1,0,3.47Z" transform="translate(-61.73 -34.46)"/></g><g id="_Группа_34" data-name="&lt;Группа&gt;"><path class="cls-8" d="M325.35,374.76H290.09a1.73,1.73,0,1,1,0-3.47h35.26a1.73,1.73,0,0,1,0,3.47Z" transform="translate(-61.73 -34.46)"/></g><g id="_Группа_35" data-name="&lt;Группа&gt;"><path class="cls-8" d="M281.31,374.76h-66.9a1.73,1.73,0,1,1,0-3.47h66.9a1.73,1.73,0,0,1,0,3.47Z" transform="translate(-61.73 -34.46)"/></g><g id="_Группа_36" data-name="&lt;Группа&gt;"><path class="cls-8" d="M325.35,348.26H251.21a1.73,1.73,0,1,1,0-3.47h74.14a1.73,1.73,0,0,1,0,3.47Z" transform="translate(-61.73 -34.46)"/></g></g></g><g id="_Группа_37" data-name="&lt;Группа&gt;"><rect id="_Прямоугольник_2" data-name="&lt;Прямоугольник&gt;" class="cls-13" x="117.94" y="122.26" width="25.4" height="25.4" rx="2.1" ry="2.1"/><rect id="_Прямоугольник_3" data-name="&lt;Прямоугольник&gt;" class="cls-13" x="117.94" y="185.55" width="25.4" height="25.4" rx="2.1" ry="2.1"/><rect id="_Прямоугольник_4" data-name="&lt;Прямоугольник&gt;" class="cls-13" x="117.94" y="248.84" width="25.4" height="25.4" rx="2.1" ry="2.1"/><rect id="_Прямоугольник_5" data-name="&lt;Прямоугольник&gt;" class="cls-13" x="117.94" y="312.12" width="25.4" height="25.4" rx="2.1" ry="2.1"/><g id="_Группа_38" data-name="&lt;Группа&gt;"><path class="cls-10" d="M192.36,178.43a1.93,1.93,0,0,1-1.48-.7l-9.57-11.56a1.93,1.93,0,1,1,3-2.46l7.88,9.52,17-26.82a1.93,1.93,0,0,1,3.25,2.06L194,177.54a1.93,1.93,0,0,1-1.51.89Z" transform="translate(-61.73 -34.46)"/></g><g id="_Группа_39" data-name="&lt;Группа&gt;"><path class="cls-10" d="M192.36,241.19a1.93,1.93,0,0,1-1.48-.7l-9.57-11.56a1.93,1.93,0,1,1,3-2.46l7.88,9.52,17-26.82a1.93,1.93,0,0,1,3.25,2.06L194,240.3a1.93,1.93,0,0,1-1.51.89Z" transform="translate(-61.73 -34.46)"/></g><g id="_Группа_40" data-name="&lt;Группа&gt;"><path class="cls-10" d="M192.36,304.23a1.93,1.93,0,0,1-1.48-.7L181.3,292a1.93,1.93,0,1,1,3-2.46l7.88,9.52,17-26.82a1.93,1.93,0,0,1,3.25,2.06L194,303.33a1.93,1.93,0,0,1-1.51.89Z" transform="translate(-61.73 -34.46)"/></g></g><path class="cls-14" d="M243.64,322.23c-3,3.2-5.08,23.7-5.16,24.46s-15.08,9.2-15.08,9.2l2.11,2.42s16-4,18.86-7.5c2.44-2.95,8.07-27.05,8.07-27.05S248.59,316.92,243.64,322.23Z" transform="translate(-61.73 -34.46)"/><ellipse class="cls-4" cx="205.2" cy="425.95" rx="44.68" ry="3.06"/><path class="cls-15" d="M289.69,447.32a29.33,29.33,0,0,0,1.81,3.23c.6.77,3.23-1,3.25-1.61s-2.33-4.49-2.33-4.49" transform="translate(-61.73 -34.46)"/><path class="cls-16" d="M295.91,449.18c.57.85,1.5,2.54,1.5,2.54L295.09,454l-.61-.28a5.56,5.56,0,0,1-1.09,1.82,12,12,0,0,1-2.4,1.73c-2.31,1.14-4.24,1.31-4.51,1-1.1-1.23,2-2.77,2.52-3.17a4.64,4.64,0,0,0,1.92-4.23c-.12-.81-.35-.87.06-1a1,1,0,0,1,.81.09,1.8,1.8,0,0,0,2.12-.24,2.27,2.27,0,0,0,.68-1.2A1.28,1.28,0,0,1,295.91,449.18Z" transform="translate(-61.73 -34.46)"/><path class="cls-15" d="M245.51,452.21a6.88,6.88,0,0,0-.52,2.41c.07,1,3.25,1,3.62.53s.55-4.88.55-4.88" transform="translate(-61.73 -34.46)"/><path class="cls-16" d="M249.45,456a19.5,19.5,0,0,1-.29,2.62H245.5l-.18-.59a5.93,5.93,0,0,1-2.12.59h-3.09c-2.26,0-3.54-.28-3.6-.66-.24-1.59,2.46-1.52,3.16-1.52,2,0,4.2-.91,4.68-1.89.35-.71.19-.89.61-.76a1,1,0,0,1,.63.52,1.87,1.87,0,0,0,1.91,1,2.25,2.25,0,0,0,1.24-.57A1.28,1.28,0,0,1,249.45,456Z" transform="translate(-61.73 -34.46)"/><path class="cls-17" d="M264.15,385.78c0,.13-3-3.26-3-3.12-1.18,5.94-6.66,25.83-8.48,31h0a5.49,5.49,0,0,1-2.84,2.6c-2.68.7-7-.22-7.3-5.34,0-.56.09-1.18,0-1.85-.76-7.89,6.78-42.68,7-44.9s4.55-.62,5.77-1C261.37,361.17,265.75,377.46,264.15,385.78Z" transform="translate(-61.73 -34.46)"/><path class="cls-17" d="M253,416.52c-1.24-3.7.64-8,.64-8s-10.52-8.09-11.06-3.15c-.05.39-.44,3.74-.44,5.62,0,6.75,2.35,28.14,2.18,41.2V453a26.14,26.14,0,0,0,4.84.32h.44c.88-8.13,2.78-19.19,3.68-30.32A25.51,25.51,0,0,0,253,416.52Z" transform="translate(-61.73 -34.46)"/><path class="cls-17" d="M279.33,417c-2.07-2.72-4.25-3.94-4.9-6-1.5-4.82-1.1-24.38-1.24-29.81.43-1.11,4.41-12.21-3.67-20.4,0,0-7.27,3.3-13.09,3.7a28.38,28.38,0,0,1-6.91-.17s4.33,6.92,4.58,10c.43,5.21,9.63,36.67,10.33,38.39a20.62,20.62,0,0,0,3.95,6.28c4.08,5.62,13.62,17.43,20.85,28.74l.49.73a19.62,19.62,0,0,0,4.16-2.49C290,438.46,285.89,425.68,279.33,417Z" transform="translate(-61.73 -34.46)"/><path class="cls-14" d="M243.64,322.23c1.48-1.69,7.82-4.31,14.09-4.12,4.32.14,18,1.55,19.36,4.44.67,1.48.61,15.5-.38,20.71-.74,3.92-3,14-3,16.34s1.26,3.35.67,4c-1.32,1.52-11.15,2.21-15.38,2.21-3.76,0-10.16-1-10.49-2.21-.48-1.79.73-1.72.9-3.6s1.05-14.24-.05-16c-1.75-2.85-4.4-10.94-4.54-13.09S242.17,323.93,243.64,322.23Z" transform="translate(-61.73 -34.46)"/><path class="cls-15" d="M254,312.79a49.08,49.08,0,0,1-.25,5.43,8.23,8.23,0,0,1-1.24.7s.73,4.53,1.87,4.2,8.64-4.12,8.64-4.12-1.06-.43-1.06-.85,1-8.62,1-8.62" transform="translate(-61.73 -34.46)"/><path class="cls-18" d="M256.07,295.64a3.18,3.18,0,0,0-3.24-.22,4.72,4.72,0,0,0-2.21,2.5,3.72,3.72,0,0,0,0,3.19A2,2,0,0,0,249.4,303a4.67,4.67,0,0,0,1,2.39,2.18,2.18,0,0,0,2.16.9,2.45,2.45,0,0,0,1.38-1,6.34,6.34,0,0,0,.78-1.53,42.12,42.12,0,0,0,2.1-7.67" transform="translate(-61.73 -34.46)"/><path class="cls-15" d="M259.25,293.85c-1.09.3-4-.3-4.77.89s-1.49,4.07-1.79,4.87c-.59,1.58-1,3.27-1.41,4.91-.56,2.13-2,6.13.07,7.91a4.22,4.22,0,0,0,2.12.7l2.95.56a9.89,9.89,0,0,0,4.73.1c2-.66,3.14-3.44,3.66-5.33l3-10.83Z" transform="translate(-61.73 -34.46)"/><path class="cls-15" d="M263.73,309.53a.92.92,0,0,0,1.49.88,3.18,3.18,0,0,0,1.71-2.67c.09-1.28-.73-2.46-1.84-2a1.71,1.71,0,0,0-.89,1.78" transform="translate(-61.73 -34.46)"/><path class="cls-19" d="M266.46,303.61c-.35,1.08-1.27,3.52-2.25,3.28s.4-4.06,1.24-5.6c-1.23,0-2.75-.19-3.19-1.34-.1-.26-.18-.59-.45-.65s-.42.13-.61.25c-.86.56-2,0-2.73-.75-.16-.18-.34-.38-.58-.36a.8.8,0,0,0-.39.19c-1.42,1-5.19,1-5.17-.81-1.24.63-2-.91-2-2s.86-2.81,2.57-2.76c-.09-1.29.93-2.1,2-2.89a6.43,6.43,0,0,1,3.63-1.2c2-.09,4.37.75,5.06,2.67a.65.65,0,0,0,.23.37.63.63,0,0,0,.48,0,5,5,0,0,1,4.53.9,3.44,3.44,0,0,1,.68,4.35,2.57,2.57,0,0,1,1.65,2.92,6.34,6.34,0,0,1-1.81,3.15,2.42,2.42,0,0,1,1.16,3.38,3.81,3.81,0,0,1-3.69,1.64,2.23,2.23,0,0,0-1.41-2.87" transform="translate(-61.73 -34.46)"/><path class="cls-19" d="M254.14,324.36s-.41,19.2-1.2,30.88l2.82,3.89,1.94-4.88a148.5,148.5,0,0,0-1.84-29.76Z" transform="translate(-61.73 -34.46)"/><path class="cls-18" d="M253.49,322.67l.07.26a5.37,5.37,0,0,0,.58,1.42h0l1.73.13s1.18-.62,1.33-1.28-1.93-1.75-1.93-1.75l-.25.1a3.76,3.76,0,0,0-1.51,1.09Z" transform="translate(-61.73 -34.46)"/><path class="cls-20" d="M262.19,316.32a10.77,10.77,0,0,1,2.36,2.38,22.2,22.2,0,0,1-5.76,7.15,10,10,0,0,0-3.52-4.4S261.56,320.16,262.19,316.32Z" transform="translate(-61.73 -34.46)"/><path class="cls-20" d="M255.27,321.46a7.45,7.45,0,0,0-3.45,3.27,16.48,16.48,0,0,1,.47-6.08s1.16-2,1.66-2A9.28,9.28,0,0,0,255.27,321.46Z" transform="translate(-61.73 -34.46)"/><path class="cls-21" d="M253,416.52a8.73,8.73,0,0,1-.42-2.67l.07-.14h0c1.22-3.51,4.11-13.65,6.22-21.72l-3.28-11.69s-2,23.8-2.64,25.5-2.68,7.2-2.48,8.39,1.48,3.35,1.28,5.23-.17,18.69-.17,18.77c.65-4.86,1.29-10,1.71-15.19A25.5,25.5,0,0,0,253,416.52Z" transform="translate(-61.73 -34.46)"/><path class="cls-22" d="M225.72,354.9a2.27,2.27,0,0,0-.57-1.91,4.12,4.12,0,0,0-1.66-1c-.16-.06-.38-.1-.48,0a.34.34,0,0,0,0,.35c.23.4.73.58,1,1a4.08,4.08,0,0,1,.23.47,2,2,0,0,0,1.47,1.11" transform="translate(-61.73 -34.46)"/><path class="cls-23" d="M248,340.92a69.57,69.57,0,0,1-2.94-8.72c-1.19,6.06-.8,16.66-1.8,17.56s-11,6.63-11,6.63h0c4.74-1.49,10.54-3.63,12.16-5.59.92-1.11,2.28-5.2,3.63-9.88Z" transform="translate(-61.73 -34.46)"/><path class="cls-24" d="M254,313.23a35.28,35.28,0,0,0,5,.8c.75-.12-1.63,1.29-2.08,1.35s-2.92-.29-2.92-.29Z" transform="translate(-61.73 -34.46)"/><path class="cls-23" d="M277.09,322.55a1.61,1.61,0,0,0-.24-.36l-9.05,8.86c-2.16,5.74-6.46,20.86-6.46,20.86s-4.08,1.91-6.81,3.33c-.69.36-2.65,1.68-5,3.28,0,.69-.09,1.23-.12,1.52-.16,1.87-.42,1.86.06,3.65a35.82,35.82,0,0,1-.76,4.73c6.8-1.74,20.84-6.14,21.38-6.43.8-.43,4.93-17.06,7.32-27.16C277.81,328.69,277.58,323.64,277.09,322.55Z" transform="translate(-61.73 -34.46)"/><polygon id="_Контур_4" data-name="&lt;Контур&gt;" class="cls-25" points="130.57 267.08 146.9 275.77 200.07 351.72 200.56 352.42 205.51 359.68 192.51 368.78 187.23 361.05 186.16 359.53 133.89 284.87 130.57 267.08"/><rect id="_Контур_5" data-name="&lt;Контур&gt;" class="cls-26" x="251.4" y="394.26" width="15.87" height="4.87" transform="matrix(0.82, -0.57, 0.57, 0.82, -242.4, 186.13)"/><rect id="_Контур_6" data-name="&lt;Контур&gt;" class="cls-27" x="248.61" y="390.27" width="15.87" height="4.87" transform="matrix(0.82, -0.57, 0.57, 0.82, -240.45, 183.4)"/><polygon id="_Контур_7" data-name="&lt;Контур&gt;" class="cls-27" points="133.89 284.87 146.9 275.77 130.57 267.08 133.89 284.87"/><polygon id="_Контур_8" data-name="&lt;Контур&gt;" class="cls-10" points="131.76 273.45 136.21 270.09 130.57 267.08 131.76 273.45"/><polygon id="_Контур_9" data-name="&lt;Контур&gt;" class="cls-28" points="131.76 273.45 136.21 270.09 130.57 267.08 131.76 273.45"/><polygon id="_Контур_10" data-name="&lt;Контур&gt;" class="cls-29" points="130.57 267.08 144.23 277.64 201.91 362.21 205.51 359.68 146.9 275.77 130.57 267.08"/><path class="cls-15" d="M241.26,365.62s-1.95.61-3,.9c-.66.19-3.77-.14-5.6.27a4.14,4.14,0,0,0-2.37,1.22,1.72,1.72,0,0,0,.14,2.42c.21.15.5.27.53.53a1,1,0,0,1-.09.38,1,1,0,0,0,1.46,1.17,1.7,1.7,0,0,0,1.58,1.63,1.35,1.35,0,0,1,.49-1.22,2.7,2.7,0,0,1,1.29-.27,3.46,3.46,0,0,0,2.08-1c.39-.39.69-.88,1-1.3a5.26,5.26,0,0,1,2.89-1.73" transform="translate(-61.73 -34.46)"/><path class="cls-14" d="M267.75,330.09c-.84,2.4-5.28,23.5-5.28,23.5a40.37,40.37,0,0,0-7.08,2.51c-2.12,1.1-16.9,10.28-16.9,10.28l1.47,3.46s26.3-9.32,27.45-9.95,11.71-27.27,11.71-32c0-2.8-2.27-5.67-2.27-5.67" transform="translate(-61.73 -34.46)"/><path class="cls-15" d="M222.94,358.38a1.76,1.76,0,0,1-1.84-1.44,1.38,1.38,0,0,0-.11-.5c-.15-.26-.49-.32-.78-.42a3.37,3.37,0,0,1-2-2.64,3.45,3.45,0,0,1,.05-1.82,1.9,1.9,0,0,1,1.26-1.24.57.57,0,0,1,.36,0,.66.66,0,0,1,.26.25,4.57,4.57,0,0,1,.71,1.54,1.89,1.89,0,0,0,.49,1.11,4.76,4.76,0,0,0,.75.34,2.18,2.18,0,0,1,.89,1.36c.26.81-.18,2.62,0,3.46" transform="translate(-61.73 -34.46)"/><path class="cls-19" d="M304.63,302.89h25a1.24,1.24,0,0,1,1.2.91l3.93,14.37,7.61,4H314.79l-7.61-4-3.75-13.71A1.24,1.24,0,0,1,304.63,302.89Z" transform="translate(-61.73 -34.46)"/><path class="cls-17" d="M307.56,317.87h27l-3.85-14.09a1.22,1.22,0,0,0-1.17-.89H305.06a1.22,1.22,0,0,0-1.17,1.54Z" transform="translate(-61.73 -34.46)"/><path class="cls-8" d="M304.51,304.25,305,306h0l2.82,10.3a1.26,1.26,0,0,0,1.22.93h23.06a1.27,1.27,0,0,0,1.22-1.61l-.16-.56-.52-1.91-.54-2-1.32-4.84-.5-1.81a1.27,1.27,0,0,0-1.22-.94h-24a.55.55,0,0,0-.44.22A.56.56,0,0,0,304.51,304.25Z" transform="translate(-61.73 -34.46)"/><polygon class="cls-17" points="253.3 287.33 280.35 287.33 272.89 283.42 245.84 283.42 253.3 287.33"/><ellipse class="cls-4" cx="289.83" cy="386.61" rx="21.26" ry="1.87"/><path class="cls-15" d="M358.27,412.89s.09,3.57.16,4.48,3,1,3.31.51.51-4.66.51-4.66" transform="translate(-61.73 -34.46)"/><path class="cls-16" d="M362.49,418.68a19.37,19.37,0,0,1-.26,2.5h-3.34l-.16-.56a5.25,5.25,0,0,1-1.94.56H354c-2.07,0-3.24-.26-3.29-.63-.22-1.52,2.25-1.45,2.89-1.45,1.85,0,3.84-.86,4.28-1.8.32-.68.18-.85.56-.72a1,1,0,0,1,.57.49,1.69,1.69,0,0,0,1.74,1,2,2,0,0,0,1.13-.54A1.22,1.22,0,0,1,362.49,418.68Z" transform="translate(-61.73 -34.46)"/><path class="cls-15" d="M346.53,411.93a27.33,27.33,0,0,0,1,3.27c.4.82,3.12-.19,3.26-.75s-1.25-4.51-1.25-4.51" transform="translate(-61.73 -34.46)"/><path class="cls-16" d="M351.82,414.9c.35.88.87,2.59.87,2.59L350.16,419l-.5-.38a4.94,4.94,0,0,1-1.33,1.39,10.87,10.87,0,0,1-2.51,1c-2.32.53-4.1.27-4.29,0-.77-1.33,2.3-2.06,2.9-2.3a4.14,4.14,0,0,0,2.56-3.38c0-.75-.15-.86.25-.88a1,1,0,0,1,.72.25,1.69,1.69,0,0,0,2,.24,2,2,0,0,0,.85-.92A1.22,1.22,0,0,1,351.82,414.9Z" transform="translate(-61.73 -34.46)"/><path class="cls-25" d="M364.39,330.76c1.2-.89,2.51-1.88,3.75-2.92,2.84-2.38,5.37-5,5.68-6.85.69-4.22.15-16.76-.18-22.68,0-.36,0-.69-.05-1-.34-5.59-3.34-8.07-4.85-9-.77,7.27-2.5,23.69-2.64,24.53C365.91,313.93,364.39,330.76,364.39,330.76Z" transform="translate(-61.73 -34.46)"/><path class="cls-11" d="M364.38,330.76c1.2-.89,2.51-1.88,3.75-2.92.11-4.62,1.48-11.08,3.42-19.17,2.3-10.19.85-12.06.85-12.06l-4.62.7c-.77,7.2-1.6,15-1.7,15.54C365.91,313.93,364.38,330.76,364.38,330.76Z" transform="translate(-61.73 -34.46)"/><path class="cls-17" d="M353.28,369a111.3,111.3,0,0,0,1.43,14.21c.61,3.15,10.53,3.73,9.25,1.3-1.84-3.53,1.37-14.59,2.94-33.45.23-2.85,1.51-3.18,2.36-9.05a18,18,0,0,0-2.39-11l-13.76-1.28-.18,17.13-.05,5.79S352.86,360.66,353.28,369Z" transform="translate(-61.73 -34.46)"/><path class="cls-17" d="M362.75,382.35s2.69,3.3,2.32,9.34-2.48,24.09-2.48,24.09-3.16.47-4.78-.13c0,0-3.4-33.47-3.42-37.27S362.75,382.35,362.75,382.35Z" transform="translate(-61.73 -34.46)"/><path class="cls-21" d="M353.28,369a106.21,106.21,0,0,1,4-11.12,21.44,21.44,0,0,1,3.9-6c7-7.32,2.18-16.79,2.18-16.79s-5.68,4.71-6.08,5.2-2.65,4.45-4.33,6.64l-.05,5.79S352.86,360.66,353.28,369Z" transform="translate(-61.73 -34.46)"/><path class="cls-17" d="M337,366.78s-3.12,10.26-2.62,13.48,11.9,33.31,11.9,33.31a11.49,11.49,0,0,0,4.58-1.13s-.25-13.25-2.48-21.54-4.84-13.36-7.06-14.11S337.59,368.51,337,366.78Z" transform="translate(-61.73 -34.46)"/><path class="cls-17" d="M347.05,372.88s-3.38,5.39-1.3,10.22-3.49,4-3.49,4-2.78-8.1-2.17-9.16,2.91-4.58,3.65-4.76A32.34,32.34,0,0,1,347.05,372.88Z" transform="translate(-61.73 -34.46)"/><path class="cls-17" d="M343.64,330.06s-7.24,33.5-8.18,42.53c-.4,3.83,3.62,10.15,7.33,6.69,4.43-4.13,11.61-23,13.83-26.38s10.56-6.4,4.87-23.36" transform="translate(-61.73 -34.46)"/><path class="cls-15" d="M361.51,285.06a15.64,15.64,0,0,1-.56-5.83c.43-2.47,1.92-6.93,1.36-10.27s-4.76-6.13-9.22-5.69-5.75,4.7-6.5,7.18a25.53,25.53,0,0,0-.43,8.29,5.73,5.73,0,0,0,2,4.08c.74.43,3.54-.14,4,.39s.86,3.69.86,3.69" transform="translate(-61.73 -34.46)"/><path class="cls-9" d="M363.61,287.71a5.64,5.64,0,0,0-1-2.65c-.74-.69-5.69-.69-7.18-.51a22.76,22.76,0,0,0-5.63,2.25c-.48.36.47,2.24.47,2.24Z" transform="translate(-61.73 -34.46)"/><path class="cls-19" d="M361.32,280.84s-6.19.53-7.36,0a4.68,4.68,0,0,1-3-3.77c-.15-2.1.28-2.75-.53-3.93s-1.52-.77-1.64.34-.17,3.13-.46,3.27-.86-1.22-.71-3.37a13.3,13.3,0,0,1,.9-4.55c.56-1.24.86-1.17,1.36-1.39a3.84,3.84,0,0,1-2.2-2c-1.24-1.93-.56-4.95,2.72-4.93,5.73,0,11.82,1.14,11.94,5.38,0,0,2-.31,2.07,3.56s-2.41,8.54-2.6,9.74S361.94,280.56,361.32,280.84Z" transform="translate(-61.73 -34.46)"/><path class="cls-25" d="M344.13,326.3c-.23,1.94-1.93,4.93-.77,5.36a22.11,22.11,0,0,0,4.67-.14h.17c2.06-.17,4.4-.4,6.37-.55,7.87-.34,11.88,1.23,12.67.79.38-.23.39-.91.27-1.61a18.32,18.32,0,0,1-.13-5.22c.19-1.46.47-3.2.84-5.19,1.3-6.89,3.84-17.42,4.22-23.75.61-9.92-10-9-10-9-13.53-.84-19.88,3.05-20.61,8.86-.05.41-.09.85-.12,1.32-.35,6,1.48,15.67,2.35,22.9A36.39,36.39,0,0,1,344.13,326.3Z" transform="translate(-61.73 -34.46)"/><path class="cls-11" d="M344.13,326.3c-.23,1.94-1.93,4.93-.77,5.36a22.11,22.11,0,0,0,4.67-.14c-2.09.15-2.48-1.45-2-2.52a15.3,15.3,0,0,0,1.34-6.41c-.1-2.88-1.18-9.37-1.82-15.51a49.93,49.93,0,0,1,0-10.76c-.32.65-1.26,1.56-3.87,2.16-.05,6,1.59,14.86,2.39,21.58A36.39,36.39,0,0,1,344.13,326.3Z" transform="translate(-61.73 -34.46)"/><path class="cls-15" d="M309.62,322.6c-.31-.17,0-.52.33-.52l.26,0c-.55-.18-1-.33-1.1-.39-.29-.16,0-.5.27-.53l-.45-.18c-.38-.2,0-.55.33-.53a5.11,5.11,0,0,1,.59.13l-.3-.12c-.31-.17-.07-.51.24-.51a4.48,4.48,0,0,1,.68.14c.35.08.73.13,1.08.22a7.29,7.29,0,0,0,1,.18,4.39,4.39,0,0,0,1.78-1l-1.18-.66s-.07-1,3.22.21c.49.19.91.86,1.22.94a7.59,7.59,0,0,0,1.21.07V323a6.76,6.76,0,0,0-2.08-.09,21.52,21.52,0,0,1-2.72.84,11.51,11.51,0,0,1-1.37-.14l-1-.21-.93-.29S309.72,322.65,309.62,322.6Z" transform="translate(-61.73 -34.46)"/><path class="cls-25" d="M318.07,323.16s5.15,1.17,9.34,1.95a40.58,40.58,0,0,0,10.06.82h.08c2.09-.08,4.87-.69,5.52-1.63a33.71,33.71,0,0,0,1.91-4.64c1.06-2.18,2.66-8.12,4-13.17l.06-.23c.63-2.35,1.2-4.5,1.64-6a3.17,3.17,0,0,0-.05-2,2.85,2.85,0,0,0-1.1-1.44l0,0c-1.42-1-1-2.34-2.44-1.4-.08,0-1-.22-1-.18a11,11,0,0,1-.31-5.4s-4.09,1.79-5.58,10.22c-.33,1.87-2.38,15.05-2.52,16.67,0,.13,0,.24,0,.36s-.05.19-.11.48c0,.09,0,.2,0,.32a15.88,15.88,0,0,0-4,.38c-4.66,1.06-15.1,1.6-15.1,1.6l-.27,2.6v0h0Z" transform="translate(-61.73 -34.46)"/><g class="cls-30"><polygon class="cls-2" points="262.49 269.09 270.36 276.68 269.04 271.84 266.19 269.09 262.49 269.09"/><polygon class="cls-2" points="271.43 280.59 259.5 269.09 260.95 269.09 270.91 278.68 271.43 280.59"/><polygon class="cls-2" points="247.19 269.09 261.38 282.76 262.82 282.76 248.65 269.09 247.19 269.09"/><path class="cls-2" d="M304.51,304.25,305,306h0l11.64,11.23h4l-14.17-13.67h-1.4a.55.55,0,0,0-.44.22A.56.56,0,0,0,304.51,304.25Z" transform="translate(-61.73 -34.46)"/></g><path class="cls-3" d="M369.24,260.05a7.9,7.9,0,1,1,1.19,2.13l-3.42.6Z" transform="translate(-61.73 -34.46)"/><path class="cls-9" d="M379.92,255a1.93,1.93,0,0,0-2.73.11l-.48.52-.52-.48a1.93,1.93,0,1,0-2.63,2.84l1.94,1.79h0a1.93,1.93,0,0,0,2.73-.11l1.79-1.94A1.93,1.93,0,0,0,379.92,255Z" transform="translate(-61.73 -34.46)"/><ellipse class="cls-4" cx="57.53" cy="384.82" rx="34.88" ry="2.39"/><path class="cls-3" d="M92,250.18a7.9,7.9,0,1,0-1.8,1.66l3.07,1.63Z" transform="translate(-61.73 -34.46)"/><path class="cls-9" d="M82.49,243.09a1.93,1.93,0,0,1,2.73,0l.49.5.51-.5a1.93,1.93,0,1,1,2.71,2.76l-1.88,1.85h0a1.93,1.93,0,0,1-2.73,0l-1.85-1.89A1.93,1.93,0,0,1,82.49,243.09Z" transform="translate(-61.73 -34.46)"/><path class="cls-19" d="M98.71,292.75,95.9,303.66s10.53,8.06,14.62,4.67-.11-13.84-.11-13.84L109,293Z" transform="translate(-61.73 -34.46)"/><path class="cls-19" d="M118.27,256.63s3,3.53,2,10.72c-.34,2.11,2.42,5.05,4.27,6.54a7.39,7.39,0,0,1,2.07,8.34c-1.47,3.31-2.07,3.64-.9,6.66,2.23,5.77.9,16.42-7.39,15.56s-9-29.32-9-29.32l.55-9.48Z" transform="translate(-61.73 -34.46)"/><path class="cls-15" d="M115.49,285.84s3,.44,6.82.88c5.73.66,13.25,1.28,15.16.33,3.17-1.59,13.58-10.53,13.58-10.53l1.63-1.06a2.24,2.24,0,0,1,.9-.3,10.88,10.88,0,0,0,1.71-.31,4.11,4.11,0,0,0,1.09-.47.66.66,0,0,0,.18-.11l0,0a17.54,17.54,0,0,0,1.75-1.43c.72-.59-.35-1-1.57-.36s-.44.47-1.21.44,0-1.17.75-2a17.48,17.48,0,0,0,1.2-1.67c.63-.88,1.24-1.57,1.58-2.13.24-.4.34-.91-.12-.78s-2.49,2.12-3,2.45-1.25-.29-2.67.5-2,3.07-2.42,3.81-14.86,9.17-16.64,9.09-15.33-3.32-19.52-3.09C112.49,279.2,115.49,285.84,115.49,285.84Z" transform="translate(-61.73 -34.46)"/><path class="cls-24" d="M122.31,286.71c5.73.66,13.25,1.28,15.16.33,3.17-1.59,13.58-10.53,13.58-10.53l1.63-1.06a2.24,2.24,0,0,1,.9-.3,10.88,10.88,0,0,0,1.71-.31,4.11,4.11,0,0,0,1.09-.47c-1,.48-3,.08-3.94.6s-8.38,6.51-11.7,8.62-4.56,2.81-7.54,2.8a87.35,87.35,0,0,1-10-1.25Z" transform="translate(-61.73 -34.46)"/><path class="cls-31" d="M119.65,408.43a27.12,27.12,0,0,1,.45,5.29c-.34,1.62-.06,2.1-.06,2.1l6.17-.35s-2.68-1.41-2.32-7.76S119.65,408.43,119.65,408.43Z" transform="translate(-61.73 -34.46)"/><path class="cls-16" d="M120,414.21a9.64,9.64,0,0,0,5.32.39,25.1,25.1,0,0,0,8.07,2.59c2.82.44,2.25,2.75-2.57,2.29a60.38,60.38,0,0,0-9.28-.25c-1.08.08-2.8.17-2.85-.58S119.14,413.94,120,414.21Z" transform="translate(-61.73 -34.46)"/><path class="cls-31" d="M100.74,407.89a27.13,27.13,0,0,1,.45,5.29c-.34,1.62-.06,2.1-.06,2.1l6.17-.35s-2.68-1.41-2.32-7.76S100.74,407.89,100.74,407.89Z" transform="translate(-61.73 -34.46)"/><path class="cls-16" d="M101.1,413.68a9.64,9.64,0,0,0,5.32.39,25.1,25.1,0,0,0,8.07,2.59c2.82.44,2.25,2.75-2.57,2.29a60.36,60.36,0,0,0-9.28-.25c-1.08.08-2.8.17-2.85-.58S100.23,413.41,101.1,413.68Z" transform="translate(-61.73 -34.46)"/><path class="cls-32" d="M124.52,319.89s2.8,41.63,2.88,47a77.62,77.62,0,0,1-.3,10.58c-.33,3.28.92,31.06.92,31.06s-9.29,2.15-11.58-.06c0,0,1.23-30.22.2-35.42s-4.89-31.53-4.89-31.53l6-26.64Z" transform="translate(-61.73 -34.46)"/><path class="cls-17" d="M103.11,369.31c1.16-7.73.32-39.21.57-45.87s18.9-2.74,18.9-2.74-7,38.85-7.83,44.47-1.85,7.24-2.35,12.64-3.8,30.71-3.8,30.71S98.23,410,97.51,408C96.16,397.94,103.11,369.31,103.11,369.31Z" transform="translate(-61.73 -34.46)"/><path class="cls-33" d="M120.63,292.65c-.21.51.23,4.11.92,8.65,0,.19.06.38.08.57.84,5.6,2,12.47,2.71,16.84,0,.2.06.38.09.56.21,1.36.38,2.43.46,3.08,0,0-12.39-2.66-22.39,1.53a61.14,61.14,0,0,1,3-12c.07-.18.14-.35.2-.51a28.92,28.92,0,0,1,1.42-3.13,1.3,1.3,0,0,1,.08-.17,3,3,0,0,0,.17-.42.34.34,0,0,0,.07-.15c.63-1.67.36-3.84-.4-6.16a36.15,36.15,0,0,0-3-6.56c-.72-1.26-1.49-2.47-2.21-3.56h0c-2.08-3.11-3.88-5.34-3.88-5.34a9.69,9.69,0,0,1,1.24-7.66l0,0a8,8,0,0,1,1-1.22c1.06-1.06,4-2.42,6.41-3.22.62-.2,1.2-.38,1.7-.49a6.58,6.58,0,0,1,1-.18,11.51,11.51,0,0,1,3.32.13c2.6.58,3.52,2.29,7.41,3.46l8.39,2.52s-1.13,7.1-.26,9.24l-5.87-.16S121.21,291.26,120.63,292.65Z" transform="translate(-61.73 -34.46)"/><path class="cls-11" d="M107.43,307.48c1.55-4.16-2.38-11.34-5.65-16.28h0l3.62-3.81s-.06,6.26,1,8.72S109.18,303.53,107.43,307.48Z" transform="translate(-61.73 -34.46)"/><path class="cls-11" d="M120.58,282.36s2.45,4,1.74,5.87l5.87.16a6.85,6.85,0,0,1-.33-2.58C127,286,123.41,286.91,120.58,282.36Z" transform="translate(-61.73 -34.46)"/><path class="cls-19" d="M115.65,319.64,139,318.7a1.21,1.21,0,0,0,1.14-1l3.23-15.8a1.21,1.21,0,0,0-1.23-1.45l-23.35.94a1.21,1.21,0,0,0-1.14,1l-3.23,15.8A1.21,1.21,0,0,0,115.65,319.64Z" transform="translate(-61.73 -34.46)"/><path class="cls-7" d="M115.6,319.07l23.25-.93a.72.72,0,0,0,.68-.58l3.2-15.63a.72.72,0,0,0-.74-.87l-22.72.91a1.13,1.13,0,0,0-1.06.91L115,318.4A.56.56,0,0,0,115.6,319.07Z" transform="translate(-61.73 -34.46)"/><path class="cls-15" d="M113.76,311.12l-.17.95-.49-.07-.28,1.38-1.09-.2h0c-1.21-.21-3.35-.64-6.21-1.31-1.85-.42-4-.94-6.4-1.56-3.17-.81-5.23-2.43-5.28-2.87a18.27,18.27,0,0,1,.28-3.81c.12-.87.27-1.82.44-2.78.58-3.49,1.36-7.24,1.65-8.58a3.27,3.27,0,0,1,.07-.34l0-.18.92.36,5,1.93-.33.94-3.11,8.94a.3.3,0,0,0,0,.13.58.58,0,0,0,.39.61,78.44,78.44,0,0,1,8,3.57c2.19,1.09,4.11,2.12,5.18,2.7l.22.12a1.39,1.39,0,0,0,.77.16A2.27,2.27,0,0,0,113.76,311.12Z" transform="translate(-61.73 -34.46)"/><path class="cls-24" d="M111.69,313.16c-1.2-.21-3.34-.64-6.21-1.3-1.85-.42-4-.94-6.4-1.56-3.17-.82-5.23-2.44-5.28-2.87a18.38,18.38,0,0,1,.28-3.81c.55-4,1.72-9.66,2.09-11.37,0-.14,0-.26.07-.34l1.25.65s0,.22-.14.61c-.4,1.84-1.62,7.44-2.18,10.7a16.66,16.66,0,0,0-.28,2.26c.06,1.63,1,1.84,2.07,2.31.63.28,4.92,1.69,8.73,2.91C108.58,312.27,111.2,313.08,111.69,313.16Z" transform="translate(-61.73 -34.46)"/><path class="cls-15" d="M112.28,310.91a5.76,5.76,0,0,0,.86.13,1.1,1.1,0,0,0,.45-.08,7,7,0,0,1,2.53-1.05l-.2,1s1.58.9,2.08,1.22c0,0,.52.24.73.3s2.06-.11,2.5-.1.68.26.66.54c0,0,0,.14-.27.18l-.32,0,.49,0c.44,0,.68.26.66.54,0,0,0,.14-.27.18l-.82.11c.34.06.53.27.52.51,0,0,0,.14-.27.18l-.88.11a.46.46,0,0,1,.2.39s0,.14-.27.18-3.48.57-3.81.51a17.79,17.79,0,0,1-3-1.88,9.23,9.23,0,0,0-1-.48Z" transform="translate(-61.73 -34.46)"/><path class="cls-33" d="M106.09,287c-1.3,4.5-1.88,6.86-2.1,7.77-.07.29-.1.43-.1.43a11.88,11.88,0,0,1-2-.23,12.83,12.83,0,0,1-4.52-1.8l-.33-.23a10.54,10.54,0,0,1-.85-.68,9.83,9.83,0,0,1-1.33-1.46s1.35-8.83,4.29-12.61l0,0a4.5,4.5,0,0,1,1.78-1.47,2,2,0,0,1,.29-.1,3.3,3.3,0,0,1,3.79,1.23,8.33,8.33,0,0,1,1.57,4.47A13.12,13.12,0,0,1,106.09,287Z" transform="translate(-61.73 -34.46)"/><path class="cls-15" d="M115.9,270.86a7.43,7.43,0,0,1-3.37.82,10.9,10.9,0,0,0,.12,1.49,6.21,6.21,0,0,1,.63.18c.44.16.24,1,.18,1.33a2.19,2.19,0,0,1-3,1.7c-1.35-.38-1.86-1.88-2.32-3.05-.19-.49-1.21-1-1.25-1.91,0-.29,0-.59,0-.91a10.08,10.08,0,0,1-1-.44s-.13-1.53-.17-3.62c0-.58,0-1.22,0-1.86,0-3,.35-6.39,1.41-8.11,1.33-2.15,4.8-1.79,7.21-1.22a20.91,20.91,0,0,1,2.52.76S120.14,268.65,115.9,270.86Z" transform="translate(-61.73 -34.46)"/><path class="cls-34" d="M112.68,257.55a4.31,4.31,0,0,1-1.44,3.87c-1.86,1.5-5,2.26-5.12,4.2a3.85,3.85,0,0,0,.88,2.24,11.69,11.69,0,0,1-2.18-.23c-.1-.15-1.11-4.57-1.11-4.57s4.23-4.91,4.76-5.17A27,27,0,0,1,112.68,257.55Z" transform="translate(-61.73 -34.46)"/><path class="cls-19" d="M114.4,255.25c-2.41-.57-5.88-.93-7.21,1.22-1.06,1.72-1.37,5.13-1.41,8.11a1.78,1.78,0,0,0,0,1.86c0,2.08.17,3.61.17,3.61a9,9,0,0,0,1,.45c0,.32,0,.62,0,.91,0,.95.09,1.72.12,2.25-2.18.73-4.85,1.95-5.85,2.93a2,2,0,0,0-.29.1,4.5,4.5,0,0,0-1.78,1.47l0,0c-2.94,3.78-4.29,12.61-4.29,12.61a9.83,9.83,0,0,0,1.33,1.46c-.29,1.34-1.07,5.09-1.65,8.58a11.49,11.49,0,0,1-3-1.77,8.9,8.9,0,0,1-1.56-11.71c1.92-2.72,1.81-4.5,1.6-5.14-2.58-8.06,1-13.89,5.17-16.4a5.77,5.77,0,0,0,2.8-5c0-2.25.37-5,2.06-6.93a8.47,8.47,0,0,1,7.61-3.16,8,8,0,0,1,5.53,3.55C114.87,254.58,114.71,254.91,114.4,255.25Z" transform="translate(-61.73 -34.46)"/><path class="cls-19" d="M108.86,272.42a1.68,1.68,0,0,1-.22.79c-.46.11-1,.27-1.57.45,0-.53-.08-1.3-.12-2.25,0-.29,0-.59,0-.91a10.08,10.08,0,0,1-1-.44s-.13-1.53-.17-3.62a3.36,3.36,0,0,0,.73.91S109,269.54,108.86,272.42Z" transform="translate(-61.73 -34.46)"/><path class="cls-19" d="M114.4,255.25c-.75.82-2.39,1.74-2.35,2.89.1,3.15-3.16,4.59-5.71,5.9a1.42,1.42,0,0,0-.56.54c0-3,.35-6.39,1.41-8.11C108.52,254.32,112,254.68,114.4,255.25Z" transform="translate(-61.73 -34.46)"/><path class="cls-19" d="M119.34,252.05a3.59,3.59,0,0,1,.14,5.52c-1.7,1.39-4.55,2.32-9,.18-5.36-2.54-4-7-.53-6.91C116.61,252.88,117.26,250.45,119.34,252.05Z" transform="translate(-61.73 -34.46)"/><path class="cls-19" d="M108.62,270.67s2.58,7.31-9,5.83c-9.74-1.24-8.08,12.39-8.08,12.39l3.67-8.21,4.49-6,2.45-2.67Z" transform="translate(-61.73 -34.46)"/></g></g></svg>